<?xml version="1.0" encoding="UTF-8" standalone="no"?>
<svg width="49px" height="56px" viewBox="0 0 49 56" version="1.1" xmlns="http://www.w3.org/2000/svg" xmlns:xlink="http://www.w3.org/1999/xlink" xmlns:sketch="http://www.bohemiancoding.com/sketch/ns">
    <!-- Generator: Sketch 3.4.3 (16618) - http://www.bohemiancoding.com/sketch -->
    <title>icon_project</title>
    <desc>Created with Sketch.</desc>
    <defs></defs>
    <g id="Welcome" stroke="none" stroke-width="1" fill="none" fill-rule="evenodd" sketch:type="MSPage">
        <g id="MobileDesign02-01-Copy-2" sketch:type="MSArtboardGroup" transform="translate(-312.000000, -691.000000)" fill="#322D1E">
            <path d="M357.355775,701.392137 L346.891242,701.392137 L346.891242,691 L357.355775,701.392137 L357.355775,701.392137 Z M360.844145,704.856183 L360.844145,746.424275 L312.008812,746.424275 L312.008812,691 L343.402412,691 L343.402412,704.856183 L360.844145,704.856183 L360.844145,704.856183 Z M318.985206,704.856183 L339.914618,704.856183 L339.914618,701.392137 L318.985206,701.392137 L318.985206,704.856183 L318.985206,704.856183 Z M353.867521,732.567863 L318.985206,732.567863 L318.985206,736.03248 L353.867521,736.03248 L353.867521,732.567863 L353.867521,732.567863 Z M353.867521,722.175955 L318.985206,722.175955 L318.985206,725.640115 L353.867521,725.640115 L353.867521,722.175955 L353.867521,722.175955 Z M353.867521,711.78416 L318.985206,711.78416 L318.985206,715.24832 L353.867521,715.24832 L353.867521,711.78416 L353.867521,711.78416 Z" id="Shape" sketch:type="MSShapeGroup"></path>
        </g>
    </g>
</svg>