<?xml version="1.0" encoding="UTF-8" standalone="no"?>
<svg width="58px" height="57px" viewBox="0 0 58 57" version="1.1" xmlns="http://www.w3.org/2000/svg" xmlns:xlink="http://www.w3.org/1999/xlink" xmlns:sketch="http://www.bohemiancoding.com/sketch/ns">
    <!-- Generator: Sketch 3.4.3 (16618) - http://www.bohemiancoding.com/sketch -->
    <title>icon_about</title>
    <desc>Created with Sketch.</desc>
    <defs></defs>
    <g id="Welcome" stroke="none" stroke-width="1" fill="none" fill-rule="evenodd" sketch:type="MSPage">
        <g id="MobileDesign02-01-Copy-2" sketch:type="MSArtboardGroup" transform="translate(-307.000000, -591.000000)" fill="#322D1E">
            <path d="M335.305247,591.002579 C319.462516,591.212367 306.792323,604.090218 307.003118,619.765026 C307.215161,635.433048 320.230237,647.972154 336.072344,647.763601 C351.911957,647.552579 364.584645,634.674728 364.373849,619.001154 C364.161806,603.331899 351.146108,590.793409 335.305247,591.002579 L335.305247,591.002579 Z M335.22043,636.659686 L335.062022,636.657218 C332.62228,636.585643 330.902237,634.807388 330.971462,632.429388 C331.039441,630.092111 332.801269,628.395303 335.160559,628.395303 L335.302129,628.397771 C337.809849,628.471196 339.510559,630.231558 339.440086,632.678048 C339.370237,635.022111 337.635849,636.659686 335.22043,636.659686 L335.22043,636.659686 Z M345.482688,616.508388 C344.908925,617.314835 343.647269,618.31626 342.05757,619.541665 L340.306968,620.737452 C339.345914,621.476643 338.765914,622.172026 338.548258,622.856303 C338.376753,623.394962 338.292559,623.537494 338.277591,624.633324 L338.275097,624.911601 L331.590753,624.911601 L331.610086,624.351962 C331.691785,622.051707 331.749161,620.698579 332.71271,619.580537 C334.224452,617.824494 337.55914,615.70009 337.70071,615.610005 C338.17843,615.253984 338.581312,614.848601 338.88129,614.415452 C339.582903,613.458452 339.893484,612.705069 339.893484,611.964643 C339.893484,610.937303 339.585398,609.98709 338.976086,609.141154 C338.390473,608.324835 337.277871,607.911431 335.668839,607.911431 C334.072903,607.911431 332.980258,608.412452 332.326667,609.440409 C331.654366,610.497367 331.314473,611.607388 331.314473,612.741473 L331.314473,613.023452 L324.422452,613.023452 L324.434925,612.729133 C324.612667,608.552516 326.119419,605.545154 328.911527,603.790345 C330.665871,602.67292 332.848667,602.106494 335.395677,602.106494 C338.729742,602.106494 341.544301,602.908005 343.760151,604.488814 C346.005312,606.090601 347.144108,608.489579 347.144108,611.619111 C347.144108,613.369601 346.585312,615.013962 345.482688,616.508388 L345.482688,616.508388 Z" id="Shape" sketch:type="MSShapeGroup"></path>
        </g>
    </g>
</svg>