<?xml version="1.0" encoding="UTF-8" standalone="no"?>
<svg width="58px" height="58px" viewBox="0 0 58 58" version="1.1" xmlns="http://www.w3.org/2000/svg" xmlns:xlink="http://www.w3.org/1999/xlink" xmlns:sketch="http://www.bohemiancoding.com/sketch/ns">
    <!-- Generator: Sketch 3.4.3 (16618) - http://www.bohemiancoding.com/sketch -->
    <title>icon_artist</title>
    <desc>Created with Sketch.</desc>
    <defs></defs>
    <g id="Welcome" stroke="none" stroke-width="1" fill="none" fill-rule="evenodd" sketch:type="MSPage">
        <g id="MobileDesign02-01-Copy-2" sketch:type="MSArtboardGroup" transform="translate(-307.000000, -790.000000)" fill="#322D1E">
            <path d="M336.011713,820.295379 C343.161377,820.295379 348.95799,813.542267 348.95799,805.211955 C348.95799,793.660095 343.161659,790.128671 336.011713,790.128671 C328.861484,790.128671 323.065436,793.660095 323.065436,805.211955 C323.065577,813.542267 328.861625,820.295379 336.011713,820.295379 Z M364.599786,842.496154 L358.068224,827.850295 C357.769474,827.180111 357.244652,826.62427 356.591411,826.285736 L346.454818,821.033269 C346.231285,820.917662 345.960618,820.940138 345.759664,821.091565 C342.892686,823.250032 339.521771,824.390932 336.011713,824.390932 C332.50109,824.390932 329.130457,823.250032 326.263479,821.091565 C326.061961,820.940138 325.791294,820.917662 325.567762,821.033269 L315.431873,826.285736 C314.77835,826.62427 314.254092,827.17983 313.955061,827.850295 L307.423499,842.496154 C306.973187,843.505855 307.065479,844.661083 307.670457,845.587204 C308.275153,846.513185 309.29855,847.065795 310.40817,847.065795 L361.614832,847.065795 C362.724453,847.065795 363.748131,846.512904 364.352827,845.587064 C364.957523,844.661083 365.050097,843.505434 364.599786,842.496154 Z" id="Shape" sketch:type="MSShapeGroup"></path>
        </g>
    </g>
</svg>