<?xml version="1.0" encoding="UTF-8" standalone="no"?>
<svg width="31px" height="31px" viewBox="0 0 31 31" version="1.1" xmlns="http://www.w3.org/2000/svg" xmlns:xlink="http://www.w3.org/1999/xlink" xmlns:sketch="http://www.bohemiancoding.com/sketch/ns">
    <!-- Generator: Sketch 3.4.3 (16618) - http://www.bohemiancoding.com/sketch -->
    <title>pen29 copy 3</title>
    <desc>Created with Sketch.</desc>
    <defs></defs>
    <g id="Welcome" stroke="none" stroke-width="1" fill="none" fill-rule="evenodd" sketch:type="MSPage">
        <g id="MobileDesign02-01-Copy-2" sketch:type="MSArtboardGroup" transform="translate(-141.000000, -214.000000)">
            <g id="pen29-copy-3" sketch:type="MSLayerGroup" transform="translate(141.000000, 214.000000)">
                <rect id="Rectangle-144" stroke="#30C9C9" stroke-width="2" sketch:type="MSShapeGroup" x="4.54747351e-13" y="0" width="31" height="31"></rect>
                <g id="pen43" transform="translate(7.000000, 6.000000)" fill="#30C9C9" sketch:type="MSShapeGroup">
                    <path d="M0,18.78725 C0,18.78725 5.8405059,0.116367466 18,0.881939126 C18,0.881939126 16.4920253,3.32421346 12.6858246,4.1134574 C12.6858246,4.1134574 14.4577201,4.32952993 15.8936706,3.85054397 C15.8936706,3.85054397 15.0318988,6.62825957 10.3407577,7.01003807 C10.3407577,7.01003807 12.9260731,7.68041694 14.0749342,7.29712744 C14.0749342,7.29712744 13.7631653,9.36769658 8.9869047,10.3966853 C8.70384465,10.4571252 6.79747048,10.9340965 8.32911747,11.1259931 C8.32911747,11.1259931 10.5306397,11.5102899 11.1063294,11.3178897 C11.1063294,11.3178897 9.22060552,14.1419425 4.59494096,13.9027013 C4.14013095,13.8790291 3.92405843,13.9027013 3.92405843,13.9027013 L0,18.78725 L0,18.78725 Z" id="Shape"></path>
                </g>
            </g>
        </g>
    </g>
</svg>